<svg xmlns="http://www.w3.org/2000/svg" xmlns:xlink="http://www.w3.org/1999/xlink" viewBox="0 0 222.54 194.88">
  <defs>
    <style>
      .cls-1 {
        isolation: isolate;
      }

      .cls-2 {
        fill: url(#linear-gradient);
      }

      .cls-3, .cls-5 {
        mix-blend-mode: multiply;
      }

      .cls-3 {
        fill: url(#linear-gradient-2);
      }

      .cls-4, .cls-6, .cls-7, .cls-8 {
        mix-blend-mode: screen;
      }

      .cls-4 {
        fill: url(#linear-gradient-3);
      }

      .cls-5 {
        fill: url(#linear-gradient-4);
      }

      .cls-6 {
        fill: url(#linear-gradient-5);
      }

      .cls-7 {
        fill: url(#radial-gradient);
      }

      .cls-8 {
        fill: url(#radial-gradient-2);
      }
    </style>
    <linearGradient id="linear-gradient" x1="225" y1="146.73" x2="225" y2="332.28" gradientUnits="userSpaceOnUse">
      <stop offset="0" stop-color="#ff5f00"/>
      <stop offset="1" stop-color="#ffab00"/>
    </linearGradient>
    <linearGradient id="linear-gradient-2" x1="362.96" y1="285.23" x2="106.22" y2="210.04" gradientUnits="userSpaceOnUse">
      <stop offset="0" stop-color="#bd5500"/>
      <stop offset="1" stop-color="#fff"/>
    </linearGradient>
    <linearGradient id="linear-gradient-3" x1="17.91" y1="185.56" x2="370.89" y2="249.55" gradientUnits="userSpaceOnUse">
      <stop offset="0" stop-color="#fff"/>
      <stop offset="1"/>
    </linearGradient>
    <linearGradient id="linear-gradient-4" x1="298.96" y1="254.46" x2="50.32" y2="298.02" xlink:href="#linear-gradient-2"/>
    <linearGradient id="linear-gradient-5" x1="449.03" y1="242.72" x2="125.51" y2="299.4" xlink:href="#linear-gradient-3"/>
    <radialGradient id="radial-gradient" cx="177.27" cy="110.6" r="70.18" xlink:href="#linear-gradient-3"/>
    <radialGradient id="radial-gradient-2" cx="190.43" cy="166.43" r="63.78" xlink:href="#linear-gradient-3"/>
  </defs>
  <g class="cls-1">
    <g id="Logo">
      <g id="Fox">
        <path class="cls-2" d="M334.23,241.45l-26.36-21,14-80.14a5.41,5.41,0,0,0-8.08-5.59L258.6,167.33H191.4l-55.15-32.58a5.41,5.41,0,0,0-8.08,5.59l14,80.14-26.36,21a5.4,5.4,0,0,0,.17,8.59L221.8,327.83l.1.05a5.53,5.53,0,0,0,1.39.71l.15,0a5.42,5.42,0,0,0,1.56.25,5.36,5.36,0,0,0,1.56-.25l.15,0a5.53,5.53,0,0,0,1.39-.71l.1-.05L334.06,250a5.4,5.4,0,0,0,.17-8.59Z" transform="translate(-113.73 -134)"/>
        <path class="cls-3" d="M136.25,134.75a5.41,5.41,0,0,0-8.08,5.59l14,80.14-26.36,21a5.4,5.4,0,0,0,.17,8.59L221.8,327.83l.1.05a5.53,5.53,0,0,0,1.39.71l.15,0a5.42,5.42,0,0,0,1.56.25L191.4,167.33Z" transform="translate(-113.73 -134)"/>
        <path class="cls-4" d="M226.56,328.63l.15,0a5.53,5.53,0,0,0,1.39-.71l.1-.05L334.06,250a5.4,5.4,0,0,0,.17-8.59l-26.36-21,14-80.14a5.41,5.41,0,0,0-8.08-5.59L258.6,167.33,225,328.88A5.36,5.36,0,0,0,226.56,328.63Z" transform="translate(-113.73 -134)"/>
        <path class="cls-5" d="M115.77,241.45a5.4,5.4,0,0,0,.17,8.59L221.8,327.83l.1.05a5.53,5.53,0,0,0,1.39.71l.15,0a5.42,5.42,0,0,0,1.56.25l-82.87-108.4Z" transform="translate(-113.73 -134)"/>
        <path class="cls-6" d="M226.71,328.59a5.53,5.53,0,0,0,1.39-.71l.1-.05L334.06,250a5.4,5.4,0,0,0,.17-8.59l-26.36-21L225,328.88a5.36,5.36,0,0,0,1.56-.25Z" transform="translate(-113.73 -134)"/>
        <polygon class="cls-7" points="111.27 194.88 147.98 31.3 144.87 33.33 111.27 194.88"/>
        <polygon class="cls-8" points="111.27 194.88 194.14 86.48 197.6 89.23 111.27 194.88"/>
      </g>
    </g>
  </g>
</svg>
